<?xml version="1.0" encoding="UTF-8"?>
<svg width="233px" height="48px" viewBox="0 0 233 48" version="1.1" xmlns="http://www.w3.org/2000/svg" xmlns:xlink="http://www.w3.org/1999/xlink">
    <!-- Generator: Sketch 60.1 (88133) - https://sketch.com -->
    <title>Groupauto_Corporate_Logo_Web</title>
    <desc>Created with Sketch.</desc>
    <defs>
        <linearGradient x1="0.00162075607%" y1="49.9981065%" x2="100.001868%" y2="49.9981065%" id="linearGradient-1">
            <stop stop-color="#191353" offset="0%"></stop>
            <stop stop-color="#161B5C" offset="15.36%"></stop>
            <stop stop-color="#103074" offset="40.4%"></stop>
            <stop stop-color="#05529C" offset="71.83%"></stop>
            <stop stop-color="#234187" offset="85%"></stop>
        </linearGradient>
        <linearGradient x1="-0.00484232904%" y1="50.0492308%" x2="109.045589%" y2="50.0492308%" id="linearGradient-2">
            <stop stop-color="#171F61" offset="0%"></stop>
            <stop stop-color="#004699" offset="33.52%"></stop>
            <stop stop-color="#00509C" offset="37.24%"></stop>
            <stop stop-color="#0068A3" offset="42.86%"></stop>
            <stop stop-color="#4B8F73" offset="49.89%"></stop>
            <stop stop-color="#97B742" offset="57.66%"></stop>
            <stop stop-color="#CFD41E" offset="64.1%"></stop>
            <stop stop-color="#F2E608" offset="68.86%"></stop>
            <stop stop-color="#FFED00" offset="71.43%"></stop>
            <stop stop-color="#FDEC02" offset="77.06%"></stop>
            <stop stop-color="#F4E707" offset="80.28%"></stop>
            <stop stop-color="#E6E011" offset="82.9%"></stop>
            <stop stop-color="#D3D51E" offset="85.19%"></stop>
            <stop stop-color="#B9C730" offset="87.27%"></stop>
            <stop stop-color="#99B546" offset="89.2%"></stop>
            <stop stop-color="#73A15F" offset="91.01%"></stop>
            <stop stop-color="#48897D" offset="92.72%"></stop>
            <stop stop-color="#186F9E" offset="94.3%"></stop>
            <stop stop-color="#234187" offset="95%"></stop>
        </linearGradient>
        <linearGradient x1="-0.00344629523%" y1="50.0380623%" x2="105.235267%" y2="50.0380623%" id="linearGradient-3">
            <stop stop-color="#12286A" offset="0%"></stop>
            <stop stop-color="#102C70" offset="9.27%"></stop>
            <stop stop-color="#0B3780" offset="21.15%"></stop>
            <stop stop-color="#014A9A" offset="34.4%"></stop>
            <stop stop-color="#004D9E" offset="36.26%"></stop>
            <stop stop-color="#0068A3" offset="43.96%"></stop>
            <stop stop-color="#39867F" offset="48.26%"></stop>
            <stop stop-color="#7FAA52" offset="53.99%"></stop>
            <stop stop-color="#B6C72F" offset="59.16%"></stop>
            <stop stop-color="#DEDC15" offset="63.58%"></stop>
            <stop stop-color="#F6E906" offset="67.09%"></stop>
            <stop stop-color="#FFED00" offset="69.23%"></stop>
            <stop stop-color="#FCEC02" offset="73.74%"></stop>
            <stop stop-color="#F2E609" offset="77.36%"></stop>
            <stop stop-color="#E1DD15" offset="80.68%"></stop>
            <stop stop-color="#C9D025" offset="83.81%"></stop>
            <stop stop-color="#AABF3A" offset="86.81%"></stop>
            <stop stop-color="#84AA54" offset="89.72%"></stop>
            <stop stop-color="#589272" offset="92.55%"></stop>
            <stop stop-color="#257695" offset="95.25%"></stop>
            <stop stop-color="#234187" offset="97%"></stop>
        </linearGradient>
        <linearGradient x1="-0.00167897918%" y1="50%" x2="100.001903%" y2="50%" id="linearGradient-4">
            <stop stop-color="#142B70" offset="0%"></stop>
            <stop stop-color="#024A9A" offset="30.02%"></stop>
            <stop stop-color="#004D9E" offset="33%"></stop>
            <stop stop-color="#0068A3" offset="44%"></stop>
            <stop stop-color="#107099" offset="45.1%"></stop>
            <stop stop-color="#57966B" offset="50.35%"></stop>
            <stop stop-color="#93B545" offset="55.29%"></stop>
            <stop stop-color="#C2CD27" offset="59.79%"></stop>
            <stop stop-color="#E3DF12" offset="63.76%"></stop>
            <stop stop-color="#F8E905" offset="67.04%"></stop>
            <stop stop-color="#FFED00" offset="69.23%"></stop>
            <stop stop-color="#FCEC02" offset="74.06%"></stop>
            <stop stop-color="#F2E609" offset="77.95%"></stop>
            <stop stop-color="#E1DD15" offset="81.5%"></stop>
            <stop stop-color="#C9D025" offset="84.86%"></stop>
            <stop stop-color="#AABF3A" offset="88.08%"></stop>
            <stop stop-color="#84AA54" offset="91.2%"></stop>
            <stop stop-color="#589272" offset="94.23%"></stop>
            <stop stop-color="#257695" offset="97.13%"></stop>
            <stop stop-color="#234187" offset="99%"></stop>
        </linearGradient>
        <linearGradient x1="-115.777778%" y1="49.8537736%" x2="100.003223%" y2="49.8537736%" id="linearGradient-5">
            <stop stop-color="#00629E" offset="53%"></stop>
            <stop stop-color="#1B718D" offset="54.01%"></stop>
            <stop stop-color="#579168" offset="56.4%"></stop>
            <stop stop-color="#8AAE48" offset="58.78%"></stop>
            <stop stop-color="#B4C42E" offset="61.1%"></stop>
            <stop stop-color="#D5D61A" offset="63.35%"></stop>
            <stop stop-color="#ECE30C" offset="65.49%"></stop>
            <stop stop-color="#FAEB03" offset="67.5%"></stop>
            <stop stop-color="#FFED00" offset="69.23%"></stop>
            <stop stop-color="#FBEB03" offset="72.58%"></stop>
            <stop stop-color="#EEE40B" offset="76.04%"></stop>
            <stop stop-color="#DAD91A" offset="79.57%"></stop>
            <stop stop-color="#BCC92D" offset="83.14%"></stop>
            <stop stop-color="#97B447" offset="86.74%"></stop>
            <stop stop-color="#699B66" offset="90.36%"></stop>
            <stop stop-color="#347E8B" offset="93.94%"></stop>
            <stop stop-color="#234187" offset="97%"></stop>
        </linearGradient>
        <linearGradient x1="-82.3438552%" y1="49.9879154%" x2="100.002243%" y2="49.9879154%" id="linearGradient-6">
            <stop stop-color="#00629E" offset="43.96%"></stop>
            <stop stop-color="#3F8577" offset="48.04%"></stop>
            <stop stop-color="#79A453" offset="52.23%"></stop>
            <stop stop-color="#A9BE35" offset="56.3%"></stop>
            <stop stop-color="#CED31E" offset="60.13%"></stop>
            <stop stop-color="#E9E10E" offset="63.67%"></stop>
            <stop stop-color="#F9EA04" offset="66.81%"></stop>
            <stop stop-color="#FFED00" offset="69.23%"></stop>
            <stop stop-color="#FBEB03" offset="72.09%"></stop>
            <stop stop-color="#EEE40B" offset="75.06%"></stop>
            <stop stop-color="#DAD91A" offset="78.08%"></stop>
            <stop stop-color="#BCC92D" offset="81.14%"></stop>
            <stop stop-color="#97B447" offset="84.22%"></stop>
            <stop stop-color="#699B66" offset="87.32%"></stop>
            <stop stop-color="#347E8B" offset="90.38%"></stop>
            <stop stop-color="#234187" offset="93%"></stop>
        </linearGradient>
        <linearGradient x1="-47.2559524%" y1="49.9728682%" x2="100.001941%" y2="49.9728682%" id="linearGradient-7">
            <stop stop-color="#00629E" offset="32.97%"></stop>
            <stop stop-color="#086699" offset="33.55%"></stop>
            <stop stop-color="#488971" offset="38.81%"></stop>
            <stop stop-color="#80A84F" offset="43.99%"></stop>
            <stop stop-color="#ADC133" offset="48.98%"></stop>
            <stop stop-color="#D1D41D" offset="53.71%"></stop>
            <stop stop-color="#EAE20D" offset="58.15%"></stop>
            <stop stop-color="#FAEA03" offset="62.16%"></stop>
            <stop stop-color="#FFED00" offset="65.38%"></stop>
            <stop stop-color="#F9EA04" offset="67.44%"></stop>
            <stop stop-color="#E9E10F" offset="70.13%"></stop>
            <stop stop-color="#CED222" offset="73.18%"></stop>
            <stop stop-color="#A8BE3C" offset="76.48%"></stop>
            <stop stop-color="#77A35D" offset="80%"></stop>
            <stop stop-color="#3D8385" offset="83.63%"></stop>
            <stop stop-color="#234187" offset="87%"></stop>
        </linearGradient>
        <linearGradient x1="0.000351493849%" y1="49.6626506%" x2="100.001494%" y2="49.6626506%" id="linearGradient-8">
            <stop stop-color="#234187" offset="19.78%"></stop>
            <stop stop-color="#166D9F" offset="21.6%"></stop>
            <stop stop-color="#538F76" offset="27.19%"></stop>
            <stop stop-color="#87AC52" offset="32.74%"></stop>
            <stop stop-color="#B2C334" offset="38.11%"></stop>
            <stop stop-color="#D4D61E" offset="43.29%"></stop>
            <stop stop-color="#ECE30D" offset="48.2%"></stop>
            <stop stop-color="#FAEB03" offset="52.76%"></stop>
            <stop stop-color="#FFED00" offset="56.59%"></stop>
            <stop stop-color="#F6E806" offset="58.75%"></stop>
            <stop stop-color="#DEDB17" offset="62.27%"></stop>
            <stop stop-color="#B6C532" offset="66.72%"></stop>
            <stop stop-color="#7FA758" offset="71.92%"></stop>
            <stop stop-color="#398187" offset="77.68%"></stop>
            <stop stop-color="#234187" offset="82%"></stop>
        </linearGradient>
        <linearGradient x1="0.00239278483%" y1="50.081761%" x2="100.001043%" y2="50.081761%" id="linearGradient-9">
            <stop stop-color="#162162" offset="0%"></stop>
            <stop stop-color="#102D71" offset="23.63%"></stop>
            <stop stop-color="#0068A3" offset="37.91%"></stop>
            <stop stop-color="#54946E" offset="44.92%"></stop>
            <stop stop-color="#AFC333" offset="53.07%"></stop>
            <stop stop-color="#E9E20E" offset="58.8%"></stop>
            <stop stop-color="#FFED00" offset="61.54%"></stop>
            <stop stop-color="#FCEC02" offset="64.54%"></stop>
            <stop stop-color="#F2E609" offset="66.94%"></stop>
            <stop stop-color="#E1DD15" offset="69.15%"></stop>
            <stop stop-color="#C9D025" offset="71.23%"></stop>
            <stop stop-color="#AABF3A" offset="73.23%"></stop>
            <stop stop-color="#84AA54" offset="75.16%"></stop>
            <stop stop-color="#589272" offset="77.04%"></stop>
            <stop stop-color="#257695" offset="78.84%"></stop>
            <stop stop-color="#234187" offset="80%"></stop>
        </linearGradient>
    </defs>
    <g id="Symbols" stroke="none" stroke-width="1" fill="none" fill-rule="evenodd">
        <g id="sur-header" transform="translate(-19.000000, -24.000000)">
            <g id="Groupauto_Corporate_Logo_Web">
                <g transform="translate(19.000000, 24.000000)">
                    <g id="Group">
                        <g transform="translate(73.289646, 16.203822)" fill="#003F89" fill-rule="nonzero">
                            <path d="M2.31473132,11.2173248 C0.95887287,10.0677707 0.24123562,8.51770701 0.24123562,6.74140127 L0.24123562,6.74140127 C0.23819135,4.98038217 0.974141547,3.4456051 2.33305374,2.29910828 L2.33305374,2.29910828 C3.85381389,1.01503185 6.01280472,0.259865684 8.36418087,0.259865684 L8.36418087,0.259865684 C11.4667759,0.256815287 13.8517431,1.26573248 15.3266972,3.16433121 L15.3266972,3.16433121 L15.4122018,3.2743949 L12.2302097,4.41171975 L12.1844037,4.36280255 C11.2438532,3.35388535 9.92158585,2.81273885 8.34585845,2.81273885 L8.34585845,2.81273885 C5.31655308,2.81579618 3.27055046,4.51566879 3.26138925,6.7444586 L3.26138925,6.7444586 C3.26444299,7.97656051 3.8110616,8.95184713 4.94705111,9.72535032 L4.94705111,9.72535032 C5.80515072,10.3092994 7.02664482,10.691465 8.36112713,10.691465 L8.36112713,10.691465 C10.6483748,10.691465 12.5019921,9.72229299 13.3081782,8.36178344 L13.3081782,8.36178344 L7.65876802,8.36178344 L7.65876802,5.82726115 L16.7650066,5.82726115 L16.7650066,5.92815287 L16.7650066,6.62828025 C16.7650066,8.48713376 16.0321101,10.0555414 14.6090695,11.2387261 L14.6090695,11.2387261 L14.544941,11.162293 L14.6090695,11.2387261 C13.0883093,12.489172 10.8957274,13.2443312 8.36418087,13.2443312 L8.36418087,13.2443312 C5.96394495,13.2382166 3.82327654,12.4983439 2.31473132,11.2173248 L2.31473132,11.2173248 Z" id="Path"></path>
                            <path d="M31.7344168,12.8896815 L31.7344168,12.7887898 L31.8199214,12.7307006 L31.7344168,12.7887898 L31.7344168,12.8896815 L31.6794495,12.8896815 L28.778401,8.62471338 L23.507654,8.62471338 L23.507654,12.8896815 L20.4355963,12.8896815 L20.4355963,0.626751592 L30.2044954,0.626751592 C32.9345347,0.626751592 34.7515072,2.26853503 34.7576147,4.67770701 L34.7576147,4.67770701 C34.7667759,6.55796178 33.8567628,7.83898089 32.1283486,8.36484076 L32.1283486,8.36484076 L35.157654,12.8896815 L31.7344168,12.8896815 L31.7344168,12.8896815 Z M23.507654,6.10547771 L29.8960682,6.10547771 C31.0870249,6.09324841 31.7099869,5.53681529 31.7160944,4.58904459 L31.7160944,4.58904459 C31.7099869,3.73605096 31.0687025,3.15210191 29.8777457,3.14292994 L29.8777457,3.14292994 L23.507654,3.14292994 L23.507654,6.10547771 L23.507654,6.10547771 Z" id="Shape"></path>
                            <path d="M39.9550721,11.2326115 C38.5961599,10.0830573 37.8968448,8.53299363 37.8968448,6.74140127 L37.8968448,6.74140127 C37.8938008,4.96509554 38.6114286,3.43031847 39.9703408,2.28076433 L39.9703408,2.28076433 C41.4941547,0.996687898 43.6531455,0.256815287 46.0197903,0.256815287 L46.0197903,0.256815287 C48.4047575,0.256815287 50.5637484,1.01197452 52.0692398,2.28076433 L52.0692398,2.28076433 C53.428152,3.42726115 54.1457798,4.96203822 54.1427358,6.74140127 L54.1427358,6.74140127 C54.1427358,8.53299363 53.428152,10.0830573 52.0692398,11.2326115 L52.0692398,11.2326115 C50.5637484,12.4983439 48.4352949,13.2382166 46.0045216,13.2382166 L46.0045216,13.2382166 C43.5859633,13.2382166 41.4422412,12.4983439 39.9550721,11.2326115 L39.9550721,11.2326115 Z M46.0197903,2.7943949 C42.9721625,2.80050955 41.0574705,4.42394904 41.0544168,6.74140127 L41.0544168,6.74140127 C41.0574705,9.11082803 42.9233028,10.6945223 46.0045216,10.7006369 L46.0045216,10.7006369 C49.1040629,10.6945223 50.9851638,9.1077707 50.9912713,6.74140127 L50.9912713,6.74140127 C50.9882176,4.42394904 49.0826868,2.80050955 46.0197903,2.7943949 L46.0197903,2.7943949 L46.0197903,2.7943949 Z" id="Shape"></path>
                            <path d="M65.1086894,13.2382166 C60.6716121,13.2351592 57.8713368,11.3579618 57.8652294,8.72254777 L57.8652294,8.72254777 L57.8652294,0.623694268 L60.937287,0.623694268 L60.937287,8.32203822 C60.9403408,9.71312102 62.4000262,10.6975796 65.1056356,10.7036943 L65.1056356,10.7036943 C67.8142988,10.6975796 69.2709305,9.70089172 69.277038,8.32203822 L69.277038,8.32203822 L69.277038,0.623694268 L72.3521494,0.623694268 L72.3521494,8.72254777 C72.3460419,11.3579618 69.5457667,13.2351592 65.1086894,13.2382166 L65.1086894,13.2382166" id="Path"></path>
                            <path d="M76.9205374,12.8896815 L76.9205374,0.626751592 L86.6924902,0.626751592 C89.4225295,0.626751592 91.239502,2.26853503 91.2456094,4.67464968 L91.2456094,4.67464968 C91.239502,7.22751592 89.6057536,8.62165605 86.579502,8.62471338 L86.579502,8.62471338 L79.9956488,8.62471338 L79.9956488,12.8896815 L76.9205374,12.8896815 L76.9205374,12.8896815 Z M79.9956488,6.10547771 L86.3840629,6.10547771 C87.559751,6.09630573 88.2010354,5.54598726 88.2071429,4.65936306 L88.2071429,4.65936306 C88.1949279,3.68101911 87.5933421,3.15821656 86.3687942,3.14598726 L86.3687942,3.14598726 L79.9987025,3.14292994 L79.9987025,6.10547771 L79.9956488,6.10547771 Z" id="Shape"></path>
                            <path d="M104.740066,12.8896815 L104.675937,12.8896815 L103.323132,10.2878981 L95.8811796,10.2878981 L94.5283748,12.8896815 L91.3952425,12.8896815 L97.7775491,0.626751592 L101.442031,0.626751592 L107.809069,12.8896815 L104.740066,12.8896815 L104.740066,12.8896815 L104.740066,12.7887898 L104.740066,12.8896815 Z M97.1668021,7.77171975 L102.01308,7.77171975 L99.5914679,3.14598726 L97.1668021,7.77171975 L97.1668021,7.77171975 Z" id="Shape"></path>
                            <path d="M116.790105,13.2382166 C112.349974,13.2321019 109.552752,11.3579618 109.546645,8.72254777 L109.546645,8.72254777 L109.546645,0.626751592 L112.618702,0.626751592 L112.618702,8.32203822 C112.62481,9.71312102 114.081442,10.6975796 116.790105,10.7006369 L116.790105,10.7006369 C119.498768,10.6975796 120.9554,9.70089172 120.958453,8.32203822 L120.958453,8.32203822 L120.958453,0.626751592 L124.030511,0.626751592 L124.030511,8.7256051 C124.027457,11.3579618 121.227182,13.2321019 116.790105,13.2382166 L116.790105,13.2382166" id="Path"></path>
                            <polygon id="Path" points="132.590131 12.8896815 132.590131 3.14292994 126.965151 3.14292994 126.965151 0.620636943 141.287169 0.620636943 141.287169 3.14292994 135.662189 3.14292994 135.662189 12.8866242 132.590131 12.8866242"></polygon>
                            <path d="M145.40055,11.2326115 C144.041638,10.08 143.342333,8.53299363 143.345377,6.74140127 L143.345377,6.74140127 C143.342333,4.96509554 144.059961,3.43031847 145.418873,2.28076433 L145.418873,2.28076433 C146.942687,0.996687898 149.098624,0.256815287 151.471376,0.256815287 L151.471376,0.256815287 C153.85329,0.256815287 156.015334,1.01197452 157.520826,2.28076433 L157.520826,2.28076433 C158.876684,3.42726115 159.594312,4.96203822 159.594312,6.74140127 L159.594312,6.74140127 C159.594312,8.53299363 158.876684,10.0830573 157.520826,11.2326115 L157.520826,11.2326115 L157.453644,11.153121 L157.517772,11.2326115 C156.01228,12.4983439 153.883827,13.2382166 151.453054,13.2382166 L151.453054,13.2382166 C149.034495,13.2382166 146.890773,12.5014013 145.40055,11.2326115 L145.40055,11.2326115 Z M151.468322,2.7943949 C148.417641,2.80050955 146.499895,4.42394904 146.496841,6.74140127 L146.496841,6.74140127 C146.499895,9.1077707 148.368781,10.6945223 151.45,10.7036943 L151.45,10.7036943 C154.549541,10.6945223 156.430642,9.1077707 156.433696,6.74140127 L156.433696,6.74140127 C156.433696,4.42394904 154.534273,2.80050955 151.468322,2.7943949 L151.468322,2.7943949 L151.468322,2.7943949 Z" id="Shape"></path>
                        </g>
                        <g fill-rule="nonzero">
                            <path d="M63.8566579,18.1391083 L63.8536042,18.1391083 L63.8536042,18.136051 C63.8536042,18.136051 63.8536042,18.136051 63.8536042,18.1391083 L38.7244168,18.1391083 L36.2295151,27.256051 L49.3208781,27.256051 C44.9754128,34.7434395 22.5457274,39.7391083 17.3604849,30.0963057 C11.8393316,19.8328662 28.0516121,5.61630573 49.818637,7.47210191 L54.6221625,2.14624204 C45.7480079,1.08535032 35.0965793,1.76407643 27.5141547,3.72687898 C8.71536042,8.58802548 -4.18056356,22.3215287 1.41082569,35.7982166 C8.37639581,52.5890446 42.2423198,50.4733758 54.5519266,36.6359236 L54.5519266,46.1747771 L63.8536042,46.1747771 L63.8536042,18.1788535 C63.8566579,18.1543949 63.8566579,18.1391083 63.8566579,18.1391083 Z" id="Path" fill="#FFFFFF"></path>
                            <g transform="translate(1.221494, 0.000000)" id="Path">
                                <path d="M63.9818611,16.7969427 L63.9788073,16.7969427 L63.9788073,16.7938854 C63.9788073,16.7938854 63.9788073,16.7969427 63.9788073,16.7969427 L38.8496199,16.7969427 L36.3547182,25.9138854 L48.8200655,25.9138854 C44.4746003,33.4012739 22.6709305,38.3938854 17.4856881,28.7541401 C11.9645347,18.4907006 27.8256356,4.28025478 47.9069987,5.98012739 L52.7105242,0.654267516 C43.8363696,-0.406624204 35.2217824,0.424968153 27.6424115,2.38471338 C8.84056356,7.24280255 -4.05536042,20.9793631 1.53602883,34.456051 C8.50159895,51.2438217 42.3675229,49.543949 54.6771298,35.7095541 L54.6771298,44.8356688 L63.9788073,44.8356688 L63.9788073,16.8366879 C63.9818611,16.8122293 63.9818611,16.7969427 63.9818611,16.7969427 Z" fill="url(#linearGradient-1)"></path>
                                <g transform="translate(14.047182, 17.426752)">
                                    <polygon fill="url(#linearGradient-2)" points="49.9316252 0.0458598726 24.6161599 0.0458598726 24.0756488 2.03312102 49.9316252 2.03312102"></polygon>
                                    <polygon fill="url(#linearGradient-3)" points="49.9316252 2.9166879 23.8313499 2.9166879 23.3488598 4.68382166 49.9316252 4.68382166"></polygon>
                                    <polygon fill="url(#linearGradient-4)" points="49.9316252 5.85171975 23.0282176 5.85171975 22.6495544 7.23974522 49.9316252 7.23974522"></polygon>
                                    <path d="M49.9316252,8.48407643 L34.7698296,8.48713376 C34.5133159,8.92738854 34.1957274,9.35847134 33.8262254,9.78038217 L49.9285714,9.78038217 L49.9285714,8.48407643 L49.9316252,8.48407643 Z" fill="url(#linearGradient-5)"></path>
                                    <path d="M49.9316252,11.2387261 L32.2840891,11.2356688 C31.847405,11.5842038 31.3771298,11.9235669 30.8732634,12.2476433 L49.9316252,12.2476433 L49.9316252,11.2387261 Z" fill="url(#linearGradient-6)"></path>
                                    <path d="M49.9316252,13.7335032 L28.1707077,13.7335032 C27.5782831,14.0117197 26.9644823,14.2715924 26.3323591,14.5161783 L49.9316252,14.522293 L49.9316252,13.7335032 Z" fill="url(#linearGradient-7)"></path>
                                    <path d="M49.9316252,16.1426752 L20.5455308,16.1426752 C18.7529882,16.4728662 16.9390695,16.6501911 15.180118,16.6501911 L49.9316252,16.6501911 L49.9316252,16.1426752 Z" fill="url(#linearGradient-8)"></path>
                                    <path d="M49.9316252,18.2797452 L0.158794233,18.2797452 L0.161847969,18.7658599 L40.1810485,18.7658599 C40.3337353,18.6038217 40.4833683,18.4448408 40.6299476,18.2828025 L40.6299476,18.7658599 L49.9316252,18.7658599 L49.9316252,18.2797452 Z" fill="url(#linearGradient-9)"></path>
                                </g>
                            </g>
                        </g>
                    </g>
                </g>
            </g>
        </g>
    </g>
</svg>